<svg version="1.1" id="Layer_1" xmlns="http://www.w3.org/2000/svg" xmlns:xlink="http://www.w3.org/1999/xlink" x="0px" y="0px"
	 width="100%" viewBox="0 0 904 351" enable-background="new 0 0 904 351" xml:space="preserve">
<path fill="#ffffff" opacity="1.000000" stroke="none" 
	d="
M590.000000,352.000000 
	C393.333344,352.000000 197.166672,352.000000 1.000000,352.000000 
	C1.000000,235.000000 1.000000,118.000000 1.000000,1.000000 
	C302.333344,1.000000 603.666687,1.000000 905.000000,1.000000 
	C905.000000,118.000000 905.000000,235.000000 905.000000,352.000000 
	C800.166687,352.000000 695.333313,352.000000 590.000000,352.000000 
M441.563019,222.110031 
	C428.232178,222.073441 414.901306,222.020721 401.570557,222.039230 
	C400.747375,222.040359 399.924988,222.602386 399.062500,223.692657 
	C398.655334,225.462189 398.634949,227.454041 397.769287,228.960022 
	C395.056091,233.680222 397.865173,234.002975 401.419373,233.980606 
	C404.515656,233.961121 407.612183,233.976547 411.234375,233.976547 
	C408.723511,245.348160 406.302612,256.312286 403.922394,267.092224 
	C406.321411,267.285858 408.111694,267.372803 409.887238,267.583801 
	C416.860657,268.412384 418.327118,267.603760 419.672913,261.306061 
	C421.155426,254.368668 422.371826,247.374176 423.684631,240.400879 
	C424.511932,236.006775 426.057526,232.610474 431.614960,233.932800 
	C432.875061,234.232620 434.268158,233.991730 435.599548,233.970337 
	C440.431793,233.892685 442.029175,232.191818 441.907715,227.321518 
	C441.871063,225.851028 441.905212,224.378769 441.563019,222.110031 
M627.790100,244.026459 
	C631.168274,244.118561 630.306213,242.880920 628.618652,241.384399 
	C633.304810,238.814713 627.173706,235.943878 628.843994,233.290207 
	C627.571655,232.884018 626.299316,232.477829 624.503418,231.626495 
	C623.032043,227.912750 619.699280,226.738846 616.425049,225.049744 
	C602.655579,217.946350 576.661865,222.605988 573.388000,244.720215 
	C572.328613,251.876236 575.844177,262.883270 584.026367,265.687805 
	C594.985107,269.444031 605.719543,269.413483 615.678772,263.555389 
	C622.799622,259.366852 627.687500,253.034653 627.790100,244.026459 
M491.556396,265.565308 
	C492.566162,266.175323 493.570648,267.301880 494.586517,267.312195 
	C501.581665,267.383240 508.579224,267.226440 515.575867,267.130219 
	C517.399414,267.105164 519.222229,267.035187 521.730652,266.966156 
	C532.045532,266.020569 540.065125,261.501129 544.095032,251.627365 
	C549.385681,238.664597 544.099365,225.258408 528.491150,223.773087 
	C526.053528,223.541122 523.606323,223.299530 521.161438,223.275940 
	C514.219971,223.208908 507.277374,223.252441 500.549805,223.252441 
	C498.601440,231.318619 496.550720,238.890823 494.988892,246.562561 
	C493.722656,252.782089 493.043945,259.121246 491.556396,265.565308 
M816.459839,127.711716 
	C818.994507,123.092049 821.508301,118.460800 824.072388,113.857521 
	C825.388000,111.495544 825.093567,109.604057 822.407349,108.704834 
	C818.704712,107.465340 814.992798,105.966537 811.166565,105.442993 
	C803.075256,104.335854 794.920532,103.454170 786.766052,103.132339 
	C781.526611,102.925545 776.052307,103.166756 771.024902,104.497696 
	C764.891663,106.121384 758.152954,107.915131 753.416809,111.772537 
	C746.646973,117.286369 740.850830,124.166588 740.819397,134.255661 
	C740.800293,140.377243 744.589172,149.135239 749.883911,152.351776 
	C759.918762,158.447861 771.303955,160.749023 782.378540,163.555771 
	C786.953918,164.715332 788.312561,167.199371 788.230225,170.389786 
	C788.189514,171.968872 784.988831,174.258621 782.835449,174.861954 
	C769.280518,178.659744 756.498840,176.538528 744.389160,169.330414 
	C742.907227,168.448334 739.162048,168.583511 738.482239,169.598206 
	C734.551208,175.465683 731.225464,181.738693 727.525635,188.168442 
	C733.515747,190.493851 738.828674,193.298538 744.486267,194.570374 
	C752.058960,196.272751 759.886475,196.895874 767.629272,197.761993 
	C770.994751,198.138474 774.506348,198.477386 777.801880,197.930588 
	C783.607117,196.967346 789.466187,195.792343 795.002319,193.849884 
	C808.589722,189.082443 820.201233,178.859741 817.790833,161.979645 
	C817.183960,157.729462 815.360413,151.955124 812.207336,150.111755 
	C805.144165,145.982346 796.906982,143.847839 789.122314,140.970230 
	C783.525513,138.901337 777.799377,137.145340 772.344727,134.761032 
	C771.305786,134.306915 770.322876,130.742508 770.941101,130.035019 
	C772.838257,127.864166 775.336121,125.269089 777.938843,124.825745 
	C790.225220,122.732933 802.332886,122.905785 813.009094,130.843613 
	C813.440247,131.164154 814.291321,130.919785 815.589111,130.897522 
	C815.678711,129.959732 815.768311,129.021957 816.459839,127.711716 
M557.734985,174.860367 
	C557.096436,174.573746 556.458679,174.038849 555.819214,174.036865 
	C540.711609,173.989929 525.603760,173.985687 510.496185,174.041611 
	C509.696930,174.044556 508.899902,174.645447 507.526733,174.545349 
	C508.349335,169.754059 509.171936,164.962769 510.923187,160.012344 
	C523.807800,160.008224 536.692627,160.035538 549.576843,159.956558 
	C551.035400,159.947617 552.490295,159.340286 554.313843,158.348206 
	C555.223572,152.840363 556.133362,147.332504 557.777222,141.509003 
	C558.495422,138.335968 556.196533,139.004761 554.517822,138.996445 
	C541.356079,138.931152 528.194092,138.889877 515.004150,138.081757 
	C516.025330,133.853851 517.046509,129.625931 518.683105,125.145775 
	C522.380188,125.097908 526.078186,124.972763 529.774170,125.016602 
	C541.061401,125.150482 552.347595,125.391304 563.634949,125.454292 
	C564.693787,125.460205 565.758057,124.503960 567.400208,123.571899 
	C568.565002,117.356049 569.729797,111.140190 570.980652,104.148270 
	C568.924072,104.098846 566.867493,104.007370 564.810913,104.006454 
	C541.880798,103.996239 518.950623,103.984016 496.020721,104.053558 
	C495.016571,104.056595 494.014771,104.842796 492.947723,105.974075 
	C492.541351,108.420525 492.250000,110.892654 491.710541,113.309402 
	C486.989868,134.458008 482.172943,155.585266 477.505798,176.745590 
	C476.167572,182.813049 475.224304,188.967636 474.432312,195.885422 
	C497.772186,195.923645 521.112061,195.971313 544.451904,195.961014 
	C545.271179,195.960648 546.090210,195.384018 547.637390,195.305588 
	C550.345154,196.363220 553.376404,196.689987 554.151062,193.346298 
	C555.521973,187.429153 556.117065,181.332245 557.734985,174.860367 
M653.620972,149.348221 
	C654.404846,153.180176 655.338989,156.988556 655.944336,160.848526 
	C657.731689,172.245346 659.388916,183.662567 661.297913,195.796875 
	C669.538452,195.864929 677.779236,195.984390 686.019470,195.957214 
	C687.646484,195.951843 689.271729,195.381943 691.352234,194.528976 
	C692.229919,193.607407 693.347595,192.819962 693.948975,191.743958 
	C701.794678,177.707260 709.420288,163.545715 717.398682,149.585526 
	C725.748047,134.976257 734.418640,120.550568 743.736450,106.003189 
	C744.139404,105.627869 744.542358,105.252548 744.945312,104.877235 
	C743.573547,104.472061 742.207947,103.743881 740.828857,103.717239 
	C734.624512,103.597382 728.413208,103.564011 722.210938,103.736130 
	C719.494141,103.811531 716.793030,104.453308 713.981934,105.576653 
	C703.766785,123.373940 693.551636,141.171234 683.336548,158.968521 
	C682.701477,158.853821 682.066467,158.739120 681.431396,158.624405 
	C679.257385,140.719559 677.083435,122.814697 674.566833,104.111343 
	C665.905640,103.882446 657.244629,103.645912 648.582153,103.487267 
	C648.430786,103.484497 648.262329,104.419304 647.773499,105.544571 
	C637.120972,123.710052 626.468506,141.875534 615.299561,160.921738 
	C613.099670,144.320938 610.865295,128.821259 609.058167,113.271927 
	C608.097107,105.003014 608.381470,104.918930 600.535950,105.010498 
	C598.870667,105.029938 597.204956,105.014664 595.539429,105.014717 
	C589.801636,105.014900 584.063782,105.014786 578.445557,105.014786 
	C578.846375,106.952614 579.231384,108.498306 579.479248,110.065681 
	C580.761414,118.174614 582.067871,126.280411 583.253479,134.403702 
	C584.890320,145.618668 586.394592,156.852936 588.016479,168.070129 
	C589.307678,177.000183 590.690247,185.916992 591.313477,194.992599 
	C590.977173,195.242783 590.640808,195.492966 590.304504,195.743134 
	C590.460205,195.797348 590.615784,195.898453 590.771667,195.899078 
	C600.188782,195.937164 609.606018,195.985580 619.022949,195.955643 
	C619.647339,195.953659 620.269775,195.349579 621.599304,194.904755 
	C622.858704,193.672989 624.478333,192.647476 625.320557,191.176834 
	C632.018982,179.480209 638.508667,167.664047 645.210144,155.969238 
	C646.829895,153.142609 648.999939,150.631317 651.095764,148.619141 
	C651.728027,148.726852 652.360291,148.834579 653.620972,149.348221 
M311.035583,154.491989 
	C306.268433,137.224136 296.365448,123.040718 284.271118,110.217468 
	C283.004059,108.874046 281.054901,108.173973 279.422180,107.175415 
	C278.639648,108.907242 277.540771,110.566978 277.127014,112.382828 
	C274.780640,122.680710 272.617279,133.020111 270.355988,143.337585 
	C265.868256,163.813843 261.373688,184.288635 256.843445,204.755524 
	C255.808304,209.432190 255.124603,214.291504 253.266464,218.633362 
	C252.437637,220.570099 248.916321,222.732880 246.952042,222.451813 
	C244.568375,222.110733 242.520615,219.741013 243.708328,215.939667 
	C245.430923,210.426346 246.198990,204.617493 247.424759,198.945602 
	C249.065628,191.353104 250.775803,183.775604 252.418427,176.183472 
	C254.990753,164.294098 257.448578,152.379303 260.108246,140.509659 
	C262.903381,128.035446 266.042572,115.635033 268.595245,103.113457 
	C268.968750,101.281357 267.497406,98.043999 265.889191,97.033897 
	C261.423279,94.228935 256.559967,91.934402 251.628723,90.016525 
	C239.053528,85.125748 225.973404,84.020126 212.474823,83.739861 
	C194.533203,83.367332 178.314011,88.434608 163.726059,97.621841 
	C147.400406,107.903458 134.472000,121.780678 125.904358,139.716324 
	C118.051308,156.156036 116.482124,173.246460 116.797585,190.949066 
	C116.989372,201.711411 119.845825,211.710876 123.621132,221.675461 
	C129.477768,237.133484 139.615799,249.216019 152.091553,260.195557 
	C152.687393,259.184021 153.281647,258.561676 153.444580,257.841736 
	C156.979095,242.223740 160.496994,226.601822 163.953552,210.966400 
	C168.551178,190.169479 173.171677,169.376892 177.587265,148.541092 
	C178.370071,144.847260 180.486679,142.205276 183.722610,142.962662 
	C187.034500,143.737808 188.728210,147.058487 187.841385,150.971222 
	C183.904175,168.342865 179.979431,185.717514 176.116974,203.105911 
	C171.399612,224.342957 166.749054,245.594849 161.988235,267.209808 
	C165.620346,269.107178 169.238312,270.911591 172.776550,272.860687 
	C186.153503,280.229736 200.923370,282.404572 215.715988,282.735748 
	C235.301117,283.174286 253.784286,277.422729 270.154816,266.870453 
	C285.328674,257.089539 297.586151,243.889282 304.804474,227.094116 
	C308.725006,217.972031 311.234894,208.144470 313.487061,198.427902 
	C316.845856,183.936813 315.534332,169.477631 311.035583,154.491989 
M463.041229,155.525192 
	C466.769409,138.574631 470.497559,121.624069 474.241364,104.602417 
	C464.361725,104.602417 455.158783,104.602417 446.064392,104.602417 
	C442.650787,120.262215 439.217499,136.012482 435.784210,151.762741 
	C430.899902,146.727722 427.288879,141.695999 423.880798,136.530350 
	C417.476105,126.822594 411.239838,117.003288 404.781097,107.332161 
	C404.055511,106.245674 402.364044,105.217445 401.091003,105.180595 
	C393.969849,104.974449 386.839661,105.081413 379.463196,105.081413 
	C372.987152,134.167831 366.592621,162.880554 360.203735,191.594513 
	C359.476898,194.861008 360.774719,196.208466 364.131012,196.007355 
	C371.681122,195.554932 379.240051,195.248978 387.608124,194.844086 
	C390.795807,180.779999 394.130219,166.068710 397.776855,149.979767 
	C400.468414,152.427338 402.847168,153.889664 404.266998,155.997833 
	C412.170959,167.733673 419.952118,179.556610 427.523712,191.509125 
	C429.673706,194.903091 432.230072,196.360123 436.132935,196.003922 
	C440.578400,195.598190 445.196503,194.531769 449.454102,195.311447 
	C454.045502,196.152267 454.658020,194.595444 455.402496,190.764618 
	C457.645752,179.220734 460.390137,167.774200 463.041229,155.525192 
M323.749329,232.352310 
	C324.979065,229.076920 325.949066,225.674026 327.483521,222.548233 
	C334.083069,209.104599 334.508972,194.440979 334.432129,180.143829 
	C334.348480,164.572052 332.123138,148.855042 324.106842,134.927094 
	C317.737457,123.860634 311.434570,112.607552 303.665009,102.547211 
	C298.441833,95.784065 290.711517,90.957191 284.102844,85.264038 
	C283.533234,85.700897 282.963593,86.137749 282.393951,86.574600 
	C283.478333,88.464478 284.257416,90.636543 285.699005,92.196274 
	C292.612823,99.676682 300.457611,106.418884 306.592529,114.473755 
	C324.116058,137.481430 332.730072,163.339340 330.199310,192.676651 
	C329.027222,206.263687 325.521362,219.106171 319.787659,231.208633 
	C309.078949,253.811935 291.913971,270.739044 270.492706,283.259338 
	C259.901276,289.449799 248.264267,292.924927 236.122208,295.363831 
	C217.139435,299.176758 198.661621,298.176636 180.468216,292.101257 
	C172.996826,289.606354 165.887985,286.025726 158.614227,282.938965 
	C158.205124,283.250061 157.796021,283.561157 157.386917,283.872284 
	C158.624893,285.591949 159.490341,288.065918 161.168365,288.894653 
	C166.995621,291.772919 172.906067,294.856598 179.145370,296.454498 
	C195.771637,300.712463 212.488480,303.445923 229.945419,300.838531 
	C243.786835,298.771179 257.115692,295.527832 269.427063,289.114746 
	C277.437134,284.942291 285.540649,280.250854 292.124298,274.187164 
	C304.915344,262.406189 317.356506,250.010178 323.749329,232.352310 
M142.989243,277.487915 
	C144.554535,278.561707 146.119843,279.635529 147.685135,280.709320 
	C148.172974,280.367950 148.660812,280.026581 149.148636,279.685211 
	C148.253494,278.028015 147.670471,276.061890 146.398941,274.777191 
	C143.655472,272.005371 140.156097,269.919403 137.681702,266.955353 
	C130.323822,258.141510 122.157608,249.717865 116.390602,239.916016 
	C101.535454,214.667542 97.387810,187.153214 103.598717,158.496811 
	C107.255089,141.626709 114.469322,126.423584 125.451874,112.616463 
	C133.966919,101.911469 143.616837,92.802948 154.991379,85.887726 
	C175.381775,73.491280 197.486282,66.880348 221.866013,68.654732 
	C236.669815,69.732162 250.772385,72.408424 263.956390,79.413422 
	C266.646973,80.842995 269.722626,81.547745 272.620789,82.586624 
	C273.009644,82.142265 273.398499,81.697906 273.787354,81.253548 
	C272.667236,80.080292 271.749573,78.523277 270.389099,77.805695 
	C266.296967,75.647285 262.180542,73.347580 257.801819,71.961586 
	C250.350174,69.602882 242.788513,67.237595 235.092072,66.105499 
	C227.325851,64.963142 219.314850,65.611710 211.454773,64.953758 
	C195.703888,63.635307 180.831100,67.628616 167.051590,74.144928 
	C151.133804,81.672447 136.762299,91.740829 125.389297,105.891708 
	C115.631081,118.033379 107.705978,130.878525 102.928711,145.709747 
	C96.402687,165.970062 95.186546,186.620682 99.258331,207.373428 
	C104.856529,235.905884 119.779617,258.934082 142.989243,277.487915 
M489.761688,233.241974 
	C490.290955,230.089569 490.820251,226.937164 491.478027,223.019379 
	C487.996979,223.019379 485.039673,223.171829 482.105469,222.976608 
	C479.153595,222.780228 477.659241,223.652725 477.040283,226.827667 
	C475.561676,234.411911 473.701324,241.923569 471.911591,249.444656 
	C470.716644,254.466217 464.218689,258.919067 459.874084,257.818573 
	C455.600311,256.736023 453.322845,252.194550 454.630310,246.511169 
	C456.035034,240.405075 457.910461,234.407822 459.345673,228.307816 
	C459.675629,226.905487 459.200134,223.994247 458.836700,223.951004 
	C454.938354,223.487152 450.978851,223.270447 447.059143,223.460648 
	C446.195526,223.502548 444.969116,225.301910 444.683075,226.479782 
	C443.105804,232.974442 442.190948,239.657745 440.226898,246.022720 
	C438.353607,252.093552 440.688599,261.216370 446.013367,264.629517 
	C453.250122,269.268188 461.119476,268.280121 469.043243,267.207733 
	C478.349670,265.948334 482.757843,259.136566 485.724915,251.612885 
	C487.901276,246.094299 488.304718,239.876556 489.761688,233.241974 
M388.119629,223.434906 
	C383.522369,223.155136 378.878723,222.345825 374.340729,222.743042 
	C369.710876,223.148285 364.831940,223.998856 360.690582,225.972977 
	C353.262268,229.514008 352.416809,242.706665 359.286133,247.161240 
	C362.253906,249.085754 366.359100,249.199173 369.877075,250.350815 
	C372.569427,251.232178 375.151001,252.452072 378.192261,253.688202 
	C374.352417,257.516052 366.578766,258.730988 362.423767,256.846039 
	C354.686462,253.335953 351.904510,254.194504 348.917694,260.754303 
	C347.874054,263.046387 348.094696,264.526001 350.623718,265.357452 
	C361.885376,269.060028 373.044769,269.611725 384.145905,264.626434 
	C388.610901,262.621307 393.398895,254.791748 391.106171,249.323837 
	C389.036560,244.388046 384.671417,242.626953 380.093719,241.154572 
	C376.025330,239.845978 371.922638,238.644028 367.118286,237.175980 
	C373.409241,230.020081 379.767273,232.879074 385.921112,233.774078 
	C387.821014,234.050385 390.844910,234.492050 391.546509,233.534103 
	C393.204865,231.269806 393.777710,228.210526 394.789490,225.472687 
	C392.818756,224.908524 390.848053,224.344360 388.119629,223.434906 
M565.776306,249.249405 
	C567.562805,240.657516 569.349365,232.065628 571.224792,223.046249 
	C567.201782,223.046249 564.029053,223.280060 560.907654,222.980194 
	C557.813782,222.682968 556.683655,224.419403 556.107483,226.832932 
	C554.962463,231.629074 553.991516,236.466446 552.916260,241.279556 
	C551.416260,247.994125 550.318481,254.841263 548.216248,261.363403 
	C546.837646,265.640411 547.107727,267.244293 551.537476,267.597717 
	C553.473938,267.752197 555.418457,268.073792 557.346313,267.996124 
	C559.545288,267.907501 561.661804,267.962494 562.147827,264.615204 
	C562.865417,259.672821 564.364075,254.843857 565.776306,249.249405 
z"/>
<path fill="#0E1B44" opacity="1.000000" stroke="none" 
	d="
M311.124329,154.886841 
	C315.534332,169.477631 316.845856,183.936813 313.487061,198.427902 
	C311.234894,208.144470 308.725006,217.972031 304.804474,227.094116 
	C297.586151,243.889282 285.328674,257.089539 270.154816,266.870453 
	C253.784286,277.422729 235.301117,283.174286 215.715988,282.735748 
	C200.923370,282.404572 186.153503,280.229736 172.776550,272.860687 
	C169.238312,270.911591 165.620346,269.107178 161.988235,267.209808 
	C166.749054,245.594849 171.399612,224.342957 176.116974,203.105911 
	C179.979431,185.717514 183.904175,168.342865 187.841385,150.971222 
	C188.728210,147.058487 187.034500,143.737808 183.722610,142.962662 
	C180.486679,142.205276 178.370071,144.847260 177.587265,148.541092 
	C173.171677,169.376892 168.551178,190.169479 163.953552,210.966400 
	C160.496994,226.601822 156.979095,242.223740 153.444580,257.841736 
	C153.281647,258.561676 152.687393,259.184021 152.091553,260.195557 
	C139.615799,249.216019 129.477768,237.133484 123.621132,221.675461 
	C119.845825,211.710876 116.989372,201.711411 116.797585,190.949066 
	C116.482124,173.246460 118.051308,156.156036 125.904358,139.716324 
	C134.472000,121.780678 147.400406,107.903458 163.726059,97.621841 
	C178.314011,88.434608 194.533203,83.367332 212.474823,83.739861 
	C225.973404,84.020126 239.053528,85.125748 251.628723,90.016525 
	C256.559967,91.934402 261.423279,94.228935 265.889191,97.033897 
	C267.497406,98.043999 268.968750,101.281357 268.595245,103.113457 
	C266.042572,115.635033 262.903381,128.035446 260.108246,140.509659 
	C257.448578,152.379303 254.990753,164.294098 252.418427,176.183472 
	C250.775803,183.775604 249.065628,191.353104 247.424759,198.945602 
	C246.198990,204.617493 245.430923,210.426346 243.708328,215.939667 
	C242.520615,219.741013 244.568375,222.110733 246.952042,222.451813 
	C248.916321,222.732880 252.437637,220.570099 253.266464,218.633362 
	C255.124603,214.291504 255.808304,209.432190 256.843445,204.755524 
	C261.373688,184.288635 265.868256,163.813843 270.355988,143.337585 
	C272.617279,133.020111 274.780640,122.680710 277.127014,112.382828 
	C277.540771,110.566978 278.639648,108.907242 279.422180,107.175415 
	C281.054901,108.173973 283.004059,108.874046 284.271118,110.217468 
	C296.365448,123.040718 306.268433,137.224136 311.124329,154.886841 
z"/>
<path fill="#0F1C44" opacity="1.000000" stroke="none" 
	d="
M661.097046,195.071823 
	C659.388916,183.662567 657.731689,172.245346 655.944336,160.848526 
	C655.338989,156.988556 654.404846,153.180176 653.376831,148.819885 
	C653.027893,147.658722 652.923096,147.025879 652.814941,146.372879 
	C652.020325,147.043686 651.468628,147.509369 650.916931,147.975037 
	C648.999939,150.631317 646.829895,153.142609 645.210144,155.969238 
	C638.508667,167.664047 632.018982,179.480209 625.320557,191.176834 
	C624.478333,192.647476 622.858704,193.672989 620.784424,194.961395 
	C610.657166,194.958603 601.344727,194.899139 592.032227,194.839676 
	C590.690247,185.916992 589.307678,177.000183 588.016479,168.070129 
	C586.394592,156.852936 584.890320,145.618668 583.253479,134.403702 
	C582.067871,126.280411 580.761414,118.174614 579.479248,110.065681 
	C579.231384,108.498306 578.846375,106.952614 578.445557,105.014786 
	C584.063782,105.014786 589.801636,105.014900 595.539429,105.014717 
	C597.204956,105.014664 598.870667,105.029938 600.535950,105.010498 
	C608.381470,104.918930 608.097107,105.003014 609.058167,113.271927 
	C610.865295,128.821259 613.099670,144.320938 615.299561,160.921738 
	C626.468506,141.875534 637.120972,123.710052 648.397522,105.253235 
	C657.650879,104.944550 666.280151,104.927193 674.909424,104.909836 
	C677.083435,122.814697 679.257385,140.719559 681.431396,158.624405 
	C682.066467,158.739120 682.701477,158.853821 683.336548,158.968521 
	C693.551636,141.171234 703.766785,123.373940 714.494751,105.254761 
	C722.807129,104.951874 730.607605,104.916161 738.405579,105.037071 
	C739.924805,105.060631 741.434692,105.693054 742.948853,106.044640 
	C734.418640,120.550568 725.748047,134.976257 717.398682,149.585526 
	C709.420288,163.545715 701.794678,177.707260 693.948975,191.743958 
	C693.347595,192.819962 692.229919,193.607407 690.665222,194.780365 
	C680.351135,195.045120 670.724121,195.058472 661.097046,195.071823 
z"/>
<path fill="#0F1C44" opacity="1.000000" stroke="none" 
	d="
M462.990173,155.907440 
	C460.390137,167.774200 457.645752,179.220734 455.402496,190.764618 
	C454.658020,194.595444 454.045502,196.152267 449.454102,195.311447 
	C445.196503,194.531769 440.578400,195.598190 436.132935,196.003922 
	C432.230072,196.360123 429.673706,194.903091 427.523712,191.509125 
	C419.952118,179.556610 412.170959,167.733673 404.266998,155.997833 
	C402.847168,153.889664 400.468414,152.427338 397.776855,149.979767 
	C394.130219,166.068710 390.795807,180.779999 387.608124,194.844086 
	C379.240051,195.248978 371.681122,195.554932 364.131012,196.007355 
	C360.774719,196.208466 359.476898,194.861008 360.203735,191.594513 
	C366.592621,162.880554 372.987152,134.167831 379.463196,105.081413 
	C386.839661,105.081413 393.969849,104.974449 401.091003,105.180595 
	C402.364044,105.217445 404.055511,106.245674 404.781097,107.332161 
	C411.239838,117.003288 417.476105,126.822594 423.880798,136.530350 
	C427.288879,141.695999 430.899902,146.727722 435.784210,151.762741 
	C439.217499,136.012482 442.650787,120.262215 446.064392,104.602417 
	C455.158783,104.602417 464.361725,104.602417 474.241364,104.602417 
	C470.497559,121.624069 466.769409,138.574631 462.990173,155.907440 
z"/>
<path fill="#0E1B43" opacity="1.000000" stroke="none" 
	d="
M557.043091,141.824646 
	C556.133362,147.332504 555.223572,152.840363 553.667542,158.644165 
	C539.724731,158.960297 526.428101,158.954269 513.132141,159.051041 
	C512.083557,159.058670 511.040253,159.781189 509.994507,160.171463 
	C509.171936,164.962769 508.349335,169.754059 508.276520,174.768799 
	C525.029785,175.098373 541.033325,175.204468 557.036804,175.310577 
	C556.117065,181.332245 555.521973,187.429153 554.151062,193.346298 
	C553.376404,196.689987 550.345154,196.363220 546.809509,195.163391 
	C522.021057,195.041565 498.060486,195.061905 474.099915,195.082260 
	C475.224304,188.967636 476.167572,182.813049 477.505798,176.745590 
	C482.172943,155.585266 486.989868,134.458008 491.710541,113.309402 
	C492.250000,110.892654 492.541351,108.420525 493.438995,105.535446 
	C519.585022,105.039322 545.239807,104.981834 570.894592,104.924339 
	C569.729797,111.140190 568.565002,117.356049 566.657166,123.792496 
	C551.185059,124.008171 536.455811,123.970177 521.727295,124.059013 
	C520.504761,124.066399 519.287415,124.931442 518.067627,125.398003 
	C517.046509,129.625931 516.025330,133.853851 514.713379,138.682373 
	C515.973999,139.519348 517.524414,139.952240 519.077026,139.960648 
	C530.347961,140.021683 541.620178,139.934158 552.889587,140.080170 
	C554.281372,140.098206 555.658936,141.216309 557.043091,141.824646 
z"/>
<path fill="#111D44" opacity="1.000000" stroke="none" 
	d="
M814.946777,130.938614 
	C814.291321,130.919785 813.440247,131.164154 813.009094,130.843613 
	C802.332886,122.905785 790.225220,122.732933 777.938843,124.825745 
	C775.336121,125.269089 772.838257,127.864166 770.941101,130.035019 
	C770.322876,130.742508 771.305786,134.306915 772.344727,134.761032 
	C777.799377,137.145340 783.525513,138.901337 789.122314,140.970230 
	C796.906982,143.847839 805.144165,145.982346 812.207336,150.111755 
	C815.360413,151.955124 817.183960,157.729462 817.790833,161.979645 
	C820.201233,178.859741 808.589722,189.082443 795.002319,193.849884 
	C789.466187,195.792343 783.607117,196.967346 777.801880,197.930588 
	C774.506348,198.477386 770.994751,198.138474 767.629272,197.761993 
	C759.886475,196.895874 752.058960,196.272751 744.486267,194.570374 
	C738.828674,193.298538 733.515747,190.493851 727.525635,188.168442 
	C731.225464,181.738693 734.551208,175.465683 738.482239,169.598206 
	C739.162048,168.583511 742.907227,168.448334 744.389160,169.330414 
	C756.498840,176.538528 769.280518,178.659744 782.835449,174.861954 
	C784.988831,174.258621 788.189514,171.968872 788.230225,170.389786 
	C788.312561,167.199371 786.953918,164.715332 782.378540,163.555771 
	C771.303955,160.749023 759.918762,158.447861 749.883911,152.351776 
	C744.589172,149.135239 740.800293,140.377243 740.819397,134.255661 
	C740.850830,124.166588 746.646973,117.286369 753.416809,111.772537 
	C758.152954,107.915131 764.891663,106.121384 771.024902,104.497696 
	C776.052307,103.166756 781.526611,102.925545 786.766052,103.132339 
	C794.920532,103.454170 803.075256,104.335854 811.166565,105.442993 
	C814.992798,105.966537 818.704712,107.465340 822.407349,108.704834 
	C825.093567,109.604057 825.388000,111.495544 824.072388,113.857521 
	C821.508301,118.460800 818.994507,123.092049 815.874939,128.071503 
	C815.175598,129.267059 815.061157,130.102829 814.946777,130.938614 
z"/>
<path fill="#1C2444" opacity="1.000000" stroke="none" 
	d="
M323.492310,232.611542 
	C317.356506,250.010178 304.915344,262.406189 292.124298,274.187164 
	C285.540649,280.250854 277.437134,284.942291 269.427063,289.114746 
	C257.115692,295.527832 243.786835,298.771179 229.945419,300.838531 
	C212.488480,303.445923 195.771637,300.712463 179.145370,296.454498 
	C172.906067,294.856598 166.995621,291.772919 161.168365,288.894653 
	C159.490341,288.065918 158.624893,285.591949 157.386917,283.872284 
	C157.796021,283.561157 158.205124,283.250061 158.614227,282.938965 
	C165.887985,286.025726 172.996826,289.606354 180.468216,292.101257 
	C198.661621,298.176636 217.139435,299.176758 236.122208,295.363831 
	C248.264267,292.924927 259.901276,289.449799 270.492706,283.259338 
	C291.913971,270.739044 309.078949,253.811935 319.787659,231.208633 
	C325.521362,219.106171 329.027222,206.263687 330.199310,192.676651 
	C332.730072,163.339340 324.116058,137.481430 306.592529,114.473755 
	C300.457611,106.418884 292.612823,99.676682 285.699005,92.196274 
	C284.257416,90.636543 283.478333,88.464478 282.393951,86.574600 
	C282.963593,86.137749 283.533234,85.700897 284.102844,85.264038 
	C290.711517,90.957191 298.441833,95.784065 303.665009,102.547211 
	C311.434570,112.607552 317.737457,123.860634 324.106842,134.927094 
	C332.123138,148.855042 334.348480,164.572052 334.432129,180.143829 
	C334.508972,194.440979 334.083069,209.104599 327.483521,222.548233 
	C325.949066,225.674026 324.979065,229.076920 323.492310,232.611542 
z"/>
<path fill="#111D44" opacity="1.000000" stroke="none" 
	d="
M492.104614,265.407318 
	C493.043945,259.121246 493.722656,252.782089 494.988892,246.562561 
	C496.550720,238.890823 498.601440,231.318619 500.549805,223.252441 
	C507.277374,223.252441 514.219971,223.208908 521.161438,223.275940 
	C523.606323,223.299530 526.053528,223.541122 528.491150,223.773087 
	C544.099365,225.258408 549.385681,238.664597 544.095032,251.627365 
	C540.065125,261.501129 532.045532,266.020569 521.145386,266.618103 
	C518.765259,266.195068 516.970947,266.100128 515.175476,266.048615 
	C507.485382,265.827850 499.794952,265.619934 492.104614,265.407318 
M513.875122,233.595154 
	C513.101074,234.370804 511.832245,235.036606 511.631744,235.939590 
	C510.123657,242.730896 508.825958,249.568924 507.365479,256.877808 
	C514.476990,256.784058 521.186951,256.621307 527.158691,252.851562 
	C530.442261,250.778778 532.582397,243.702545 531.339478,239.904129 
	C530.006165,235.829575 525.862183,233.570953 520.557739,233.876678 
	C518.581848,233.990570 516.588867,233.809845 513.875122,233.595154 
z"/>
<path fill="#131E44" opacity="1.000000" stroke="none" 
	d="
M627.020630,243.927887 
	C627.687500,253.034653 622.799622,259.366852 615.678772,263.555389 
	C605.719543,269.413483 594.985107,269.444031 584.026367,265.687805 
	C575.844177,262.883270 572.328613,251.876236 573.388000,244.720215 
	C576.661865,222.605988 602.655579,217.946350 616.425049,225.049744 
	C619.699280,226.738846 623.032043,227.912750 624.771912,232.210846 
	C627.598572,236.168472 627.256958,240.057541 627.020630,243.927887 
M598.840698,233.690491 
	C592.644043,235.544418 587.497681,241.531158 587.142761,247.298676 
	C586.755981,253.584259 592.134155,257.402771 600.619202,256.866882 
	C608.298706,256.381897 613.494690,249.808655 612.817444,241.435272 
	C612.341187,235.545639 607.295593,232.480072 598.840698,233.690491 
z"/>
<path fill="#1B2444" opacity="1.000000" stroke="none" 
	d="
M142.743439,277.232391 
	C119.779617,258.934082 104.856529,235.905884 99.258331,207.373428 
	C95.186546,186.620682 96.402687,165.970062 102.928711,145.709747 
	C107.705978,130.878525 115.631081,118.033379 125.389297,105.891708 
	C136.762299,91.740829 151.133804,81.672447 167.051590,74.144928 
	C180.831100,67.628616 195.703888,63.635307 211.454773,64.953758 
	C219.314850,65.611710 227.325851,64.963142 235.092072,66.105499 
	C242.788513,67.237595 250.350174,69.602882 257.801819,71.961586 
	C262.180542,73.347580 266.296967,75.647285 270.389099,77.805695 
	C271.749573,78.523277 272.667236,80.080292 273.787354,81.253548 
	C273.398499,81.697906 273.009644,82.142265 272.620789,82.586624 
	C269.722626,81.547745 266.646973,80.842995 263.956390,79.413422 
	C250.772385,72.408424 236.669815,69.732162 221.866013,68.654732 
	C197.486282,66.880348 175.381775,73.491280 154.991379,85.887726 
	C143.616837,92.802948 133.966919,101.911469 125.451874,112.616463 
	C114.469322,126.423584 107.255089,141.626709 103.598717,158.496811 
	C97.387810,187.153214 101.535454,214.667542 116.390602,239.916016 
	C122.157608,249.717865 130.323822,258.141510 137.681702,266.955353 
	C140.156097,269.919403 143.655472,272.005371 146.398941,274.777191 
	C147.670471,276.061890 148.253494,278.028015 149.148636,279.685211 
	C148.660812,280.026581 148.172974,280.367950 147.685135,280.709320 
	C146.119843,279.635529 144.554535,278.561707 142.743439,277.232391 
z"/>
<path fill="#121E44" opacity="1.000000" stroke="none" 
	d="
M489.630005,233.606201 
	C488.304718,239.876556 487.901276,246.094299 485.724915,251.612885 
	C482.757843,259.136566 478.349670,265.948334 469.043243,267.207733 
	C461.119476,268.280121 453.250122,269.268188 446.013367,264.629517 
	C440.688599,261.216370 438.353607,252.093552 440.226898,246.022720 
	C442.190948,239.657745 443.105804,232.974442 444.683075,226.479782 
	C444.969116,225.301910 446.195526,223.502548 447.059143,223.460648 
	C450.978851,223.270447 454.938354,223.487152 458.836700,223.951004 
	C459.200134,223.994247 459.675629,226.905487 459.345673,228.307816 
	C457.910461,234.407822 456.035034,240.405075 454.630310,246.511169 
	C453.322845,252.194550 455.600311,256.736023 459.874084,257.818573 
	C464.218689,258.919067 470.716644,254.466217 471.911591,249.444656 
	C473.701324,241.923569 475.561676,234.411911 477.040283,226.827667 
	C477.659241,223.652725 479.153595,222.780228 482.105469,222.976608 
	C485.039673,223.171829 487.996979,223.019379 491.478027,223.019379 
	C490.820251,226.937164 490.290955,230.089569 489.630005,233.606201 
z"/>
<path fill="#131E44" opacity="1.000000" stroke="none" 
	d="
M388.498474,223.607544 
	C390.848053,224.344360 392.818756,224.908524 394.789490,225.472687 
	C393.777710,228.210526 393.204865,231.269806 391.546509,233.534103 
	C390.844910,234.492050 387.821014,234.050385 385.921112,233.774078 
	C379.767273,232.879074 373.409241,230.020081 367.118286,237.175980 
	C371.922638,238.644028 376.025330,239.845978 380.093719,241.154572 
	C384.671417,242.626953 389.036560,244.388046 391.106171,249.323837 
	C393.398895,254.791748 388.610901,262.621307 384.145905,264.626434 
	C373.044769,269.611725 361.885376,269.060028 350.623718,265.357452 
	C348.094696,264.526001 347.874054,263.046387 348.917694,260.754303 
	C351.904510,254.194504 354.686462,253.335953 362.423767,256.846039 
	C366.578766,258.730988 374.352417,257.516052 378.192261,253.688202 
	C375.151001,252.452072 372.569427,251.232178 369.877075,250.350815 
	C366.359100,249.199173 362.253906,249.085754 359.286133,247.161240 
	C352.416809,242.706665 353.262268,229.514008 360.690582,225.972977 
	C364.831940,223.998856 369.710876,223.148285 374.340729,222.743042 
	C378.878723,222.345825 383.522369,223.155136 388.498474,223.607544 
z"/>
<path fill="#121D43" opacity="1.000000" stroke="none" 
	d="
M441.906921,222.907318 
	C441.905212,224.378769 441.871063,225.851028 441.907715,227.321518 
	C442.029175,232.191818 440.431793,233.892685 435.599548,233.970337 
	C434.268158,233.991730 432.875061,234.232620 431.614960,233.932800 
	C426.057526,232.610474 424.511932,236.006775 423.684631,240.400879 
	C422.371826,247.374176 421.155426,254.368668 419.672913,261.306061 
	C418.327118,267.603760 416.860657,268.412384 409.887238,267.583801 
	C408.111694,267.372803 406.321411,267.285858 403.922394,267.092224 
	C406.302612,256.312286 408.723511,245.348160 411.234375,233.976547 
	C407.612183,233.976547 404.515656,233.961121 401.419373,233.980606 
	C397.865173,234.002975 395.056091,233.680222 397.769287,228.960022 
	C398.634949,227.454041 398.655334,225.462189 399.541565,223.335464 
	C413.982758,222.954620 427.944824,222.930969 441.906921,222.907318 
z"/>
<path fill="#152046" opacity="1.000000" stroke="none" 
	d="
M565.653198,249.608002 
	C564.364075,254.843857 562.865417,259.672821 562.147827,264.615204 
	C561.661804,267.962494 559.545288,267.907501 557.346313,267.996124 
	C555.418457,268.073792 553.473938,267.752197 551.537476,267.597717 
	C547.107727,267.244293 546.837646,265.640411 548.216248,261.363403 
	C550.318481,254.841263 551.416260,247.994125 552.916260,241.279556 
	C553.991516,236.466446 554.962463,231.629074 556.107483,226.832932 
	C556.683655,224.419403 557.813782,222.682968 560.907654,222.980194 
	C564.029053,223.280060 567.201782,223.046249 571.224792,223.046249 
	C569.349365,232.065628 567.562805,240.657516 565.653198,249.608002 
z"/>
<path fill="#FFFFFF" opacity="1.000000" stroke="none" 
	d="
M570.937622,104.536301 
	C545.239807,104.981834 519.585022,105.039322 493.471069,105.180496 
	C494.014771,104.842796 495.016571,104.056595 496.020721,104.053558 
	C518.950623,103.984016 541.880798,103.996239 564.810913,104.006454 
	C566.867493,104.007370 568.924072,104.098846 570.937622,104.536301 
z"/>
<path fill="#FEFFFF" opacity="1.000000" stroke="none" 
	d="
M474.266113,195.483841 
	C498.060486,195.061905 522.021057,195.041565 546.445496,195.048584 
	C546.090210,195.384018 545.271179,195.960648 544.451904,195.961014 
	C521.112061,195.971313 497.772186,195.923645 474.266113,195.483841 
z"/>
<path fill="#474F6A" opacity="1.000000" stroke="none" 
	d="
M518.375366,125.271881 
	C519.287415,124.931442 520.504761,124.066399 521.727295,124.059013 
	C536.455811,123.970177 551.185059,124.008171 566.366943,124.003761 
	C565.758057,124.503960 564.693787,125.460205 563.634949,125.454292 
	C552.347595,125.391304 541.061401,125.150482 529.774170,125.016602 
	C526.078186,124.972763 522.380188,125.097908 518.375366,125.271881 
z"/>
<path fill="#FFFFFF" opacity="1.000000" stroke="none" 
	d="
M557.385864,175.085464 
	C541.033325,175.204468 525.029785,175.098373 508.564087,174.980103 
	C508.899902,174.645447 509.696930,174.044556 510.496185,174.041611 
	C525.603760,173.985687 540.711609,173.989929 555.819214,174.036865 
	C556.458679,174.038849 557.096436,174.573746 557.385864,175.085464 
z"/>
<path fill="#B4B8CE" opacity="1.000000" stroke="none" 
	d="
M557.410156,141.666824 
	C555.658936,141.216309 554.281372,140.098206 552.889587,140.080170 
	C541.620178,139.934158 530.347961,140.021683 519.077026,139.960648 
	C517.524414,139.952240 515.973999,139.519348 514.727417,139.062103 
	C528.194092,138.889877 541.356079,138.931152 554.517822,138.996445 
	C556.196533,139.004761 558.495422,138.335968 557.410156,141.666824 
z"/>
<path fill="#FFFFFF" opacity="1.000000" stroke="none" 
	d="
M510.458862,160.091904 
	C511.040253,159.781189 512.083557,159.058670 513.132141,159.051041 
	C526.428101,158.954269 539.724731,158.960297 553.484070,158.975281 
	C552.490295,159.340286 551.035400,159.947617 549.576843,159.956558 
	C536.692627,160.035538 523.807800,160.008224 510.458862,160.091904 
z"/>
<path fill="#FFFFFF" opacity="1.000000" stroke="none" 
	d="
M441.734985,222.508667 
	C427.944824,222.930969 413.982758,222.954620 399.561462,222.940857 
	C399.924988,222.602386 400.747375,222.040359 401.570557,222.039230 
	C414.901306,222.020721 428.232178,222.073441 441.734985,222.508667 
z"/>
<path fill="#4E536D" opacity="1.000000" stroke="none" 
	d="
M491.830505,265.486328 
	C499.794952,265.619934 507.485382,265.827850 515.175476,266.048615 
	C516.970947,266.100128 518.765259,266.195068 520.802734,266.627930 
	C519.222229,267.035187 517.399414,267.105164 515.575867,267.130219 
	C508.579224,267.226440 501.581665,267.383240 494.586517,267.312195 
	C493.570648,267.301880 492.566162,266.175323 491.830505,265.486328 
z"/>
<path fill="#FAFBFF" opacity="1.000000" stroke="none" 
	d="
M743.342651,106.023911 
	C741.434692,105.693054 739.924805,105.060631 738.405579,105.037071 
	C730.607605,104.916161 722.807129,104.951874 714.546204,104.885384 
	C716.793030,104.453308 719.494141,103.811531 722.210938,103.736130 
	C728.413208,103.564011 734.624512,103.597382 740.828857,103.717239 
	C742.207947,103.743881 743.573547,104.472061 744.945312,104.877228 
	C744.542358,105.252548 744.139404,105.627869 743.342651,106.023911 
z"/>
<path fill="#E9EBF3" opacity="1.000000" stroke="none" 
	d="
M627.405396,243.977173 
	C627.256958,240.057541 627.598572,236.168472 625.033691,232.433426 
	C626.299316,232.477829 627.571655,232.884018 628.843994,233.290222 
	C627.173706,235.943878 633.304810,238.814713 628.618652,241.384399 
	C630.306213,242.880920 631.168274,244.118561 627.405396,243.977173 
z"/>
<path fill="#FFFFFF" opacity="1.000000" stroke="none" 
	d="
M591.672852,194.916138 
	C601.344727,194.899139 610.657166,194.958603 620.431396,195.021805 
	C620.269775,195.349579 619.647339,195.953659 619.022949,195.955643 
	C609.606018,195.985580 600.188782,195.937164 590.771667,195.899078 
	C590.615784,195.898453 590.460205,195.797348 590.304504,195.743149 
	C590.640808,195.492966 590.977173,195.242783 591.672852,194.916138 
z"/>
<path fill="#FDFFFF" opacity="1.000000" stroke="none" 
	d="
M661.197510,195.434357 
	C670.724121,195.058472 680.351135,195.045120 690.437988,195.052078 
	C689.271729,195.381943 687.646484,195.951843 686.019470,195.957214 
	C677.779236,195.984390 669.538452,195.864929 661.197510,195.434357 
z"/>
<path fill="#FEFEFF" opacity="1.000000" stroke="none" 
	d="
M674.738159,104.510590 
	C666.280151,104.927193 657.650879,104.944550 648.561707,104.939270 
	C648.262329,104.419304 648.430786,103.484497 648.582153,103.487267 
	C657.244629,103.645912 665.905640,103.882446 674.738159,104.510590 
z"/>
<path fill="#F7F7F7" opacity="1.000000" stroke="none" 
	d="
M651.006348,148.297089 
	C651.468628,147.509369 652.020325,147.043686 652.814941,146.372879 
	C652.923096,147.025879 653.027893,147.658722 653.062622,148.616928 
	C652.360291,148.834579 651.728027,148.726852 651.006348,148.297089 
z"/>
<path fill="#E3E5EB" opacity="1.000000" stroke="none" 
	d="
M815.267944,130.918060 
	C815.061157,130.102829 815.175598,129.267059 815.573975,128.257721 
	C815.768311,129.021957 815.678711,129.959732 815.267944,130.918060 
z"/>
<path fill="#ffffff" opacity="1.000000" stroke="none" 
	d="
M514.239380,233.679291 
	C516.588867,233.809845 518.581848,233.990570 520.557739,233.876678 
	C525.862183,233.570953 530.006165,235.829575 531.339478,239.904129 
	C532.582397,243.702545 530.442261,250.778778 527.158691,252.851562 
	C521.186951,256.621307 514.476990,256.784058 507.365479,256.877808 
	C508.825958,249.568924 510.123657,242.730896 511.631744,235.939590 
	C511.832245,235.036606 513.101074,234.370804 514.239380,233.679291 
z"/>
<path fill="#ffffff" opacity="1.000000" stroke="none" 
	d="
M599.159668,233.510681 
	C607.295593,232.480072 612.341187,235.545639 612.817444,241.435272 
	C613.494690,249.808655 608.298706,256.381897 600.619202,256.866882 
	C592.134155,257.402771 586.755981,253.584259 587.142761,247.298676 
	C587.497681,241.531158 592.644043,235.544418 599.159668,233.510681 
z"/>
</svg>